<svg fill="none" height="57" viewBox="0 0 1126 57" width="1126" xmlns="http://www.w3.org/2000/svg"><g fill="#2d1448" opacity=".4"><path d="m12.5995 46.9419v-45.58141h-1.0608l-10.41298 39.65581v-39.65581h-1.12572v45.58141h.844293l10.629407-40.50234v40.50234z"/><path d="m17.1032 46.9419h1.0824v-39.59071l5.9967 26.24191h.0866l5.9966-26.24191v39.59071h1.1257v-45.58141h-1.0608l-6.0832 26.95811-6.0832-26.95811h-1.0608z"/><path d="m35.8977 46.9419h10.8892v-3.1256h-9.7635v-18.2977h8.6811v-3.1255h-8.6811v-17.90702h9.6552v-3.12559h-10.7809z"/><path d="m50.4005 46.9419h1.1257v-21.3581h3.7669c.1732 11.6558 3.0524 22.1395 7.3172 22.1395 4.4163 0 7.3605-11.3954 7.3605-23.5721v-.1302c0-12.1768-2.8793-23.441898-7.3172-23.441898-4.2215 0-7.1007 10.353498-7.3389 21.879098h-3.7885v-21.09771h-1.1257zm12.2531-2.2791c-3.572 0-6.1915-9.507-6.1915-20.5116v-.1302c0-11.0047 2.5545-20.38143 6.1482-20.38143 3.572 0 6.1915 9.50693 6.1915 20.51163v.1302c0 11.0047-2.5546 20.3814-6.1482 20.3814z"/><path d="m76.8171 46.9419h1.1258v-42.45582h5.2822v-3.12559h-11.6902v3.12559h5.2822z"/><path d="m92.3151 47.7233c2.6844 0 4.3947-3.2558 6.0183-7.9442l-.7577-2.214c-1.537 4.6233-3.0308 7.0977-5.2173 7.0977-3.6153 0-6.408-9.0511-6.408-20.5116v-.1302c0-11.4605 2.7494-20.38143 6.3864-20.38143 2.2731 0 3.7885 2.86511 5.109 6.70693l.801-2.47438c-1.5587-4.36279-3.204-7.293018-5.8884-7.293018-4.373 0-7.577 10.679098-7.577 23.572098v.1302c0 13.0884 3.1824 23.4419 7.5337 23.4419z"/><path d="m112.69 1.36049h-6.278c-3.399 0-5.499 5.40466-5.499 12.95811v.1303c0 7.7488 1.949 12.5023 4.568 13.3488l-5.131 19.1442h1.429l5.001-18.8837h4.784v18.8837h1.126zm-1.126 3.12559v20.51162h-4.849c-2.663 0-4.676-3.386-4.676-10.4186v-.1302c0-5.99073 1.58-9.96282 4.33-9.96282z"/><path d="m123.676 46.9419h1.125v-42.45582h9.699v42.45582h1.126v-45.58141h-11.95z"/><path d="m140.124 46.9419h1.125v-16.9954h4.092c3.182 0 5.91-4.8837 5.91-14.5209v-.1302c0-8.79072-2.295-13.93491-5.629-13.93491h-5.498zm1.125-20.1209v-22.33492h4.287c2.706 0 4.589 3.77674 4.589 11.00462v.1303c0 6.8372-1.905 11.2-4.719 11.2z"/><path d="m161.512 47.7233c4.589 0 7.642-11.0698 7.642-23.5721v-.1302c0-12.4372-3.01-23.441898-7.599-23.441898-4.59 0-7.642 11.069798-7.642 23.572098v.1302c0 12.4372 3.009 23.4419 7.599 23.4419zm.043-3.0605c-3.745 0-6.473-9.2465-6.473-20.5116v-.1302c0-11.2652 2.684-20.38143 6.43-20.38143 3.745 0 6.473 9.24653 6.473 20.51163v.1302c0 11.2651-2.685 20.3814-6.43 20.3814z"/><path d="m175.99 46.9419h1.126v-42.45582h5.282v-3.12559h-11.69v3.12559h5.282z"/><path d="m198.303 46.9419v-45.58141h-1.06l-10.413 39.65581v-39.65581h-1.126v45.58141h.844l10.63-40.50234v40.50234z"/><path d="m202.807 46.9419h6.581c3.269 0 5.434-4.8186 5.434-12.4372v-.1303c0-6.2511-1.602-9.4418-3.42-10.8744 1.233-1.5628 2.576-4.5581 2.576-10.8093v-.1302c0-2.80001-.325-5.20931-.974-7.16279-.845-2.53954-2.209-4.03722-3.941-4.03722h-6.256zm10.023-33.9256c0 6.0558-1.645 9.3768-3.896 9.3768h-5.001v-17.90702h5.109c2.446 0 3.788 3.38604 3.788 8.40002zm.845 21.4884c0 5.7302-1.646 9.3116-4.243 9.3116h-5.499v-18.2977h5.13c3.01 0 4.612 3.1907 4.612 8.8558z"/><path d="m225.252 47.7233c4.59 0 7.642-11.0698 7.642-23.5721v-.1302c0-12.4372-3.009-23.441898-7.599-23.441898-4.589 0-7.641 11.069798-7.641 23.572098v.1302c0 12.4372 3.009 23.4419 7.598 23.4419zm.043-3.0605c-3.745 0-6.472-9.2465-6.472-20.5116v-.1302c0-11.2652 2.684-20.38143 6.429-20.38143s6.473 9.24653 6.473 20.51163v.1302c0 11.2651-2.684 20.3814-6.43 20.3814z"/><path d="m236.717 46.9419h1.126v-42.45582h9.699v42.45582h1.125v-45.58141h-11.95z"/><path d="m260.093 47.7233c4.589 0 7.642-11.0698 7.642-23.5721v-.1302c0-12.4372-3.009-23.441898-7.599-23.441898-4.589 0-7.642 11.069798-7.642 23.572098v.1302c0 12.4372 3.009 23.4419 7.599 23.4419zm.043-3.0605c-3.745 0-6.473-9.2465-6.473-20.5116v-.1302c0-11.2652 2.685-20.38143 6.43-20.38143s6.473 9.24653 6.473 20.51163v.1302c0 11.2651-2.685 20.3814-6.43 20.3814z"/><path d="m271.558 46.9419h1.126v-21.8791h3.031l6.927 21.8791h1.559l-7.534-23.6372 7.231-21.94421h-1.516l-6.711 20.57671h-2.987v-20.57671h-1.126z"/><path d="m285.312 46.9419h1.169l1.926-12.7628h8.941l1.927 12.7628h1.234l-7.057-45.90699h-1.083zm3.572-15.8233 4.005-26.37206 3.983 26.37206z"/><path d="m303.302 9.63026c1.278-3.32093 2.901-6.05581 5.174-6.05581 2.533 0 4.157 3.84186 4.157 9.18135v.1303c0 6.4465-1.992 9.5721-4.525 9.5721h-2.532v3.0604h2.532c3.01 0 4.85 3.1907 4.85 9.2465v.1303c0 5.5349-1.884 9.8325-4.676 9.8325-2.273 0-3.875-2.3441-5.196-5.6651l-.671 2.4744c1.407 3.5814 3.269 6.1861 5.867 6.1861 3.55 0 5.845-5.6 5.845-12.893v-.1303c0-5.4697-1.407-9.5721-3.551-10.8744 2.165-1.6279 3.226-6.0558 3.226-11.0698v-.1302c0-7.09766-2.251-12.046498-5.304-12.046498-2.771 0-4.611 3.451158-5.888 6.772088z"/><path d="m316.283 46.9419h1.169l1.927-12.7628h8.941l1.927 12.7628h1.234l-7.058-45.90699h-1.082zm3.572-15.8233 4.005-26.37206 3.984 26.37206z"/><path d="m334.686 46.9419h1.125v-21.3581h9.699v21.3581h1.126v-45.58141h-1.126v21.09771h-9.699v-21.09771h-1.125z"/><path d="m363.733 46.9419v-45.58141h-1.061l-10.413 39.65581v-39.65581h-1.126v45.58141h.845l10.629-40.50234v40.50234z"/><path d="m379.386 1.36049h-6.279c-3.398 0-5.498 5.40466-5.498 12.95811v.1303c0 7.7488 1.948 12.5023 4.568 13.3488l-5.131 19.1442h1.429l5.001-18.8837h4.784v18.8837h1.126zm-1.126 3.12559v20.51162h-4.849c-2.663 0-4.677-3.386-4.677-10.4186v-.1302c0-5.99073 1.581-9.96282 4.33-9.96282z"/><path d="m383.037 53.9093c1.299-1.4976 1.797-3.5814 1.797-7.6837v-4.8186h-1.429v5.5349h.584c.065 2.5395-.281 3.8419-1.212 5.3395z"/><path d="m395.361 46.9419h1.125v-21.3581h9.699v21.3581h1.126v-45.58141h-1.126v21.09771h-9.699v-21.09771h-1.125z"/><path d="m411.808 46.9419h10.89v-3.1256h-9.764v-18.2977h8.681v-3.1255h-8.681v-17.90702h9.655v-3.12559h-10.781z"/><path d="m433.239 47.7233c4.589 0 7.642-11.0698 7.642-23.5721v-.1302c0-12.4372-3.009-23.441898-7.599-23.441898-4.589 0-7.642 11.069798-7.642 23.572098v.1302c0 12.4372 3.009 23.4419 7.599 23.4419zm.043-3.0605c-3.745 0-6.473-9.2465-6.473-20.5116v-.1302c0-11.2652 2.685-20.38143 6.43-20.38143s6.473 9.24653 6.473 20.51163v.1302c0 11.2651-2.685 20.3814-6.43 20.3814z"/><path d="m444.704 46.9419h5.953c3.031 0 5.824-3.907 5.824-13.0884v-.1302c0-8.4-2.338-12.3721-5.542-12.3721h-5.109v-16.86512h9.395v-3.12559h-10.521zm1.126-3.1256v-19.3395h5.022c2.598 0 4.503 2.6046 4.503 9.4418v.1303c0 6.4465-1.948 9.7674-4.633 9.7674z"/><path d="m470.05 1.36049-5.152 20.12091-5.174-20.12091h-1.342l5.802 22.33491-6.019 23.2465h1.321l5.369-21.0326 5.39 21.0326h1.342l-6.04-23.2465 5.824-22.33491z"/><path d="m480.785 47.7233c4.59 0 7.642-11.0698 7.642-23.5721v-.1302c0-12.4372-3.009-23.441898-7.598-23.441898-4.59 0-7.642 11.069798-7.642 23.572098v.1302c0 12.4372 3.009 23.4419 7.598 23.4419zm.044-3.0605c-3.746 0-6.473-9.2465-6.473-20.5116v-.1302c0-11.2652 2.684-20.38143 6.429-20.38143s6.473 9.24653 6.473 20.51163v.1302c0 11.2651-2.684 20.3814-6.429 20.3814z"/><path d="m489.787 43.8163v12.7628h1.104v-9.6372h14.439v9.6372h1.105v-12.7628h-1.408l-6.343-42.78139h-1.147l-6.365 42.78139zm8.313-38.80929 5.693 38.80929h-11.43z"/><path d="m522.143 46.9419v-45.58141h-1.06l-10.413 39.65581v-39.65581h-1.126v45.58141h.844l10.63-40.50234v40.50234z"/><path d="m526.647 46.9419h1.083v-39.59071l5.996 26.24191h.087l5.997-26.24191v39.59071h1.125v-45.58141h-1.061l-6.083 26.95811-6.083-26.95811h-1.061z"/><path d="m552.369 47.7233c4.59 0 7.642-11.0698 7.642-23.5721v-.1302c0-12.4372-3.009-23.441898-7.598-23.441898-4.59 0-7.642 11.069798-7.642 23.572098v.1302c0 12.4372 3.009 23.4419 7.598 23.4419zm.044-3.0605c-3.746 0-6.473-9.2465-6.473-20.5116v-.1302c0-11.2652 2.684-20.38143 6.429-20.38143s6.473 9.24653 6.473 20.51163v.1302c0 11.2651-2.684 20.3814-6.429 20.3814z"/><path d="m570.325 46.9419h1.126v-42.45582h9.698v42.45582h1.126v-45.58141h-11.95z"/><path d="m586.773 46.9419h1.125v-16.9954h4.092c3.182 0 5.91-4.8837 5.91-14.5209v-.1302c0-8.79072-2.295-13.93491-5.629-13.93491h-5.498zm1.125-20.1209v-22.33492h4.287c2.706 0 4.589 3.77674 4.589 11.00462v.1303c0 6.8372-1.905 11.2-4.719 11.2z"/><path d="m608.161 47.7233c4.589 0 7.642-11.0698 7.642-23.5721v-.1302c0-12.4372-3.009-23.441898-7.599-23.441898-4.589 0-7.642 11.069798-7.642 23.572098v.1302c0 12.4372 3.009 23.4419 7.599 23.4419zm.043-3.0605c-3.745 0-6.473-9.2465-6.473-20.5116v-.1302c0-11.2652 2.685-20.38143 6.43-20.38143s6.473 9.24653 6.473 20.51163v.1302c0 11.2651-2.685 20.3814-6.43 20.3814z"/><path d="m619.626 46.9419h1.126v-21.8791h3.031l6.927 21.8791h1.559l-7.534-23.6372 7.231-21.94421h-1.516l-6.711 20.57671h-2.987v-20.57671h-1.126z"/><path d="m641.056 47.7233c4.59 0 7.642-11.0698 7.642-23.5721v-.1302c0-12.4372-3.009-23.441898-7.598-23.441898-4.59 0-7.642 11.069798-7.642 23.572098v.1302c0 12.4372 3.009 23.4419 7.598 23.4419zm.044-3.0605c-3.746 0-6.473-9.2465-6.473-20.5116v-.1302c0-11.2652 2.684-20.38143 6.429-20.38143 3.746 0 6.473 9.24653 6.473 20.51163v.1302c0 11.2651-2.684 20.3814-6.429 20.3814z"/><path d="m652.522 46.9419h1.125v-21.3581h9.699v21.3581h1.126v-45.58141h-1.126v21.09771h-9.699v-21.09771h-1.125z"/><path d="m675.832 47.7233c2.684 0 4.395-3.2558 6.018-7.9442l-.757-2.214c-1.537 4.6233-3.031 7.0977-5.218 7.0977-3.615 0-6.408-9.0511-6.408-20.5116v-.1302c0-11.4605 2.75-20.38143 6.387-20.38143 2.273 0 3.788 2.86511 5.109 6.70693l.801-2.47438c-1.559-4.36279-3.204-7.293018-5.889-7.293018-4.373 0-7.577 10.679098-7.577 23.572098v.1302c0 13.0884 3.183 23.4419 7.534 23.4419z"/><path d="m687.966 46.9419 9.114-45.58141h-1.277l-5.26 26.89301-5.932-26.89301h-1.321l6.646 29.75811-3.225 15.8233z"/><path d="m703.669 1.03491h-1.018l-6.884 45.90699h1.191l6.191-41.73954 6.17 41.73954h1.256z"/><path d="m713.789 46.9419h5.217c3.117 0 5.91-4.8186 5.91-14.3907v-.1302c0-8.6605-2.316-13.8047-5.629-13.8047h-4.373v-17.25581h-1.125zm1.125-3.1256v-22.0744h4.287c2.706 0 4.589 3.7116 4.589 10.8744v.1302c0 6.707-1.926 11.0698-4.719 11.0698z"/><path d="m730.502 46.9419h1.125v-42.45582h5.282v-3.12559h-11.69v3.12559h5.283z"/><path d="m752.815 46.9419v-45.58141h-1.061l-10.413 39.65581v-39.65581h-1.126v45.58141h.844l10.63-40.50234v40.50234z"/><path d="m757.318 46.9419h1.126v-16.9954h4.092c3.182 0 5.91-4.8837 5.91-14.5209v-.1302c0-8.79072-2.295-13.93491-5.629-13.93491h-5.499zm1.126-20.1209v-22.33492h4.286c2.706 0 4.59 3.77674 4.59 11.00462v.1303c0 6.8372-1.905 11.2-4.719 11.2z"/><path d="m778.706 47.7233c4.59 0 7.642-11.0698 7.642-23.5721v-.1302c0-12.4372-3.009-23.441898-7.598-23.441898-4.59 0-7.642 11.069798-7.642 23.572098v.1302c0 12.4372 3.009 23.4419 7.598 23.4419zm.044-3.0605c-3.746 0-6.473-9.2465-6.473-20.5116v-.1302c0-11.2652 2.684-20.38143 6.429-20.38143 3.746 0 6.473 9.24653 6.473 20.51163v.1302c0 11.2651-2.684 20.3814-6.429 20.3814z"/><path d="m790.172 46.9419h6.581c3.269 0 5.434-4.8186 5.434-12.4372v-.1303c0-6.2511-1.602-9.4418-3.421-10.8744 1.234-1.5628 2.576-4.5581 2.576-10.8093v-.1302c0-2.80001-.324-5.20931-.974-7.16279-.844-2.53954-2.208-4.03722-3.94-4.03722h-6.256zm10.023-33.9256c0 6.0558-1.645 9.3768-3.897 9.3768h-5.001v-17.90702h5.109c2.447 0 3.789 3.38604 3.789 8.40002zm.844 21.4884c0 5.7302-1.645 9.3116-4.243 9.3116h-5.499v-18.2977h5.131c3.009 0 4.611 3.1907 4.611 8.8558z"/><path d="m804.179 46.9419h1.169l1.927-12.7628h8.94l1.927 12.7628h1.234l-7.057-45.90699h-1.083zm3.572-15.8233 4.005-26.37206 3.983 26.37206z"/><path d="m824.833 46.9419h1.126v-42.45582h5.282v-3.12559h-11.69v3.12559h5.282z"/><path d="m834.547 46.9419h5.217c3.118 0 5.91-4.8186 5.91-14.3907v-.1302c0-8.6605-2.316-13.8047-5.628-13.8047h-4.373v-17.25581h-1.126zm1.126-3.1256v-22.0744h4.286c2.706 0 4.59 3.7116 4.59 10.8744v.1302c0 6.707-1.927 11.0698-4.72 11.0698z"/><path d="m855.87 47.7233c2.684 0 4.395-3.2558 6.018-7.9442l-.757-2.214c-1.537 4.6233-3.031 7.0977-5.218 7.0977-3.615 0-6.408-9.0511-6.408-20.5116v-.1302c0-11.4605 2.75-20.38143 6.387-20.38143 2.273 0 3.788 2.86511 5.109 6.70693l.801-2.47438c-1.559-4.36279-3.204-7.293018-5.889-7.293018-4.373 0-7.577 10.679098-7.577 23.572098v.1302c0 13.0884 3.183 23.4419 7.534 23.4419z"/><path d="m876.245 1.36049h-6.278c-3.399 0-5.499 5.40466-5.499 12.95811v.1303c0 7.7488 1.948 12.5023 4.568 13.3488l-5.131 19.1442h1.429l5.001-18.8837h4.784v18.8837h1.126zm-1.126 3.12559v20.51162h-4.849c-2.663 0-4.676-3.386-4.676-10.4186v-.1302c0-5.99073 1.58-9.96282 4.33-9.96282z"/><path d="m894.093 47.7233c2.685 0 4.395-3.2558 6.019-7.9442l-.758-2.214c-1.537 4.6233-3.031 7.0977-5.217 7.0977-3.616 0-6.408-9.0511-6.408-20.5116v-.1302c0-11.4605 2.749-20.38143 6.386-20.38143 2.273 0 3.788 2.86511 5.109 6.70693l.801-2.47438c-1.559-4.36279-3.204-7.293018-5.888-7.293018-4.373 0-7.577 10.679098-7.577 23.572098v.1302c0 13.0884 3.182 23.4419 7.533 23.4419z"/><path d="m909.824 47.7233c4.589 0 7.642-11.0698 7.642-23.5721v-.1302c0-12.4372-3.009-23.441898-7.599-23.441898-4.589 0-7.642 11.069798-7.642 23.572098v.1302c0 12.4372 3.009 23.4419 7.599 23.4419zm.043-3.0605c-3.745 0-6.473-9.2465-6.473-20.5116v-.1302c0-11.2652 2.685-20.38143 6.43-20.38143s6.473 9.24653 6.473 20.51163v.1302c0 11.2651-2.685 20.3814-6.43 20.3814z"/><path d="m934.642 47.7233c2.684 0 4.395-3.2558 6.018-7.9442l-.757-2.214c-1.537 4.6233-3.031 7.0977-5.218 7.0977-3.615 0-6.408-9.0511-6.408-20.5116v-.1302c0-11.4605 2.75-20.38143 6.387-20.38143 2.273 0 3.788 2.86511 5.109 6.70693l.801-2.47438c-1.559-4.36279-3.204-7.293018-5.889-7.293018-4.373 0-7.577 10.679098-7.577 23.572098v.1302c0 13.0884 3.183 23.4419 7.534 23.4419z"/><path d="m943.868 46.9419h1.126v-42.45582h9.698v42.45582h1.126v-45.58141h-11.95z"/><path d="m960.316 46.9419h10.889v-3.1256h-9.764v-18.2977h8.681v-3.1255h-8.681v-17.90702h9.656v-3.12559h-10.781z"/><path d="m987.072 56.5791h1.104v-12.7628h-1.408v-42.45581h-1.125v42.45581h-9.699v-42.45581h-1.126v45.58141h12.254z"/><path d="m1004.03 46.9419v-45.58141h-1.06l-10.409 39.65581v-39.65581h-1.126v45.58141h.845l10.63-40.50234v40.50234z"/><path d="m1007.24 46.9419h1.17l1.93-12.7628h8.94l1.92 12.7628h1.24l-7.06-45.90699h-1.08zm3.57-15.8233 4.01-26.37206 3.98 26.37206z"/><path d="m1031.82 1.03491h-1.02l-6.88 45.90699h1.19l6.19-41.73954 6.17 41.73954h1.26z"/><path d="m1054.54 46.9419v-45.58141h-1.06l-10.41 39.65581v-39.65581h-1.13v45.58141h.85l10.63-40.50234v40.50234z"/><path d="m1065.91 47.7233c2.68 0 4.39-3.2558 6.02-7.9442l-.76-2.214c-1.54 4.6233-3.03 7.0977-5.22 7.0977-3.61 0-6.41-9.0511-6.41-20.5116v-.1302c0-11.4605 2.75-20.38143 6.39-20.38143 2.27 0 3.79 2.86511 5.11 6.70693l.8-2.47438c-1.56-4.36279-3.2-7.293018-5.89-7.293018-4.37 0-7.58 10.679098-7.58 23.572098v.1302c0 13.0884 3.19 23.4419 7.54 23.4419z"/><path d="m1079.22 46.9419h1.13v-42.45582h5.28v-3.12559h-11.69v3.12559h5.28z"/><path d="m1094.79 47.7233c4.59 0 7.64-11.0698 7.64-23.5721v-.1302c0-12.4372-3.01-23.441898-7.6-23.441898s-7.64 11.069798-7.64 23.572098v.1302c0 12.4372 3.01 23.4419 7.6 23.4419zm.04-3.0605c-3.74 0-6.47-9.2465-6.47-20.5116v-.1302c0-11.2652 2.68-20.38143 6.43-20.38143 3.74 0 6.47 9.24653 6.47 20.51163v.1302c0 11.2651-2.68 20.3814-6.43 20.3814z"/><path d="m1106.25 46.9419h1.09v-39.59071l5.99 26.24191h.09l6-26.24191v39.59071h1.12v-45.58141h-1.06l-6.08 26.95811-6.09-26.95811h-1.06z"/><path d="m1124.57 46.9419h1.43v-5.5349h-1.43z"/></g></svg>