<svg fill="none" height="119" viewBox="0 0 278 119" width="278" xmlns="http://www.w3.org/2000/svg"><g fill="#2d1448"><g opacity=".4"><path d="m9.49519 33.1163v-32.558162h-.76308l-7.49067 28.325562v-28.325562h-.809799v32.558162h.607349l7.6464-28.93025v28.93025z"/><path d="m12.735 33.1163h.7787v-28.27909l4.3137 18.74419h.0623l4.3137-18.74419v28.27909h.8099v-32.558162h-.7631l-4.3761 19.255862-4.376-19.255862h-.7631z"/><path d="m26.255 33.1163h7.8333v-2.2326h-7.0235v-13.0697h6.2448v-2.2326h-6.2448v-12.7907h6.9456v-2.232562h-7.7554z"/><path d="m36.6878 33.1163h.8098v-15.2558h2.7097c.1246 8.3255 2.1958 15.8139 5.2637 15.8139 3.1769 0 5.2949-8.1395 5.2949-16.8372v-.093c0-8.69769-2.0713-16.7442-5.2637-16.7442-3.0368 0-5.108 7.39535-5.2793 15.6279h-2.7253v-15.069762h-.8098zm8.8144-1.6279c-2.5696 0-4.454-6.7907-4.454-14.6512v-.093c0-7.86048 1.8377-14.55815 4.4228-14.55815 2.5696 0 4.4539 6.79069 4.4539 14.65115v.093c0 7.8605-1.8376 14.5582-4.4227 14.5582z"/><path d="m55.6909 33.1163h.8098v-30.3256h3.7998v-2.232562h-8.4095v2.232562h3.7999z"/><path d="m66.8395 33.6744c1.9311 0 3.1613-2.3256 4.3293-5.6744l-.545-1.5814c-1.1057 3.3023-2.1803 5.0698-3.7532 5.0698-2.6007 0-4.6096-6.4651-4.6096-14.6512v-.093c0-8.18606 1.9778-14.55815 4.5941-14.55815 1.6351 0 2.7253 2.04651 3.6752 4.79069l.5762-1.76744c-1.1212-3.11628-2.3048-5.2093-4.2359-5.2093-3.1457 0-5.4505 7.6279-5.4505 16.8372v.093c0 9.3489 2.2892 16.7442 5.4194 16.7442z"/><path d="m81.4963.558138h-4.5162c-2.4449 0-3.9555 3.860462-3.9555 9.255812v.09303c0 5.53492 1.4016 8.93022 3.2859 9.53492l-3.6908 13.6744h1.0278l3.5974-13.4884h3.4416v13.4884h.8098zm-.8098 2.232562v14.6512h-3.4883c-1.9155 0-3.3638-2.4186-3.3638-7.4419v-.09302c0-4.27907 1.1368-7.11628 3.1146-7.11628z"/><path d="m89.3991 33.1163h.8098v-30.3256h6.9767v30.3256h.8098v-32.558162h-8.5963z"/><path d="m101.231 33.1163h.81v-12.1396h2.943c2.289 0 4.252-3.4883 4.252-10.3721v-.093c0-6.27904-1.651-9.953462-4.049-9.953462h-3.956zm.81-14.3721v-15.9535h3.083c1.947 0 3.302 2.69767 3.302 7.8605v.093c0 4.8837-1.371 8-3.395 8z"/><path d="m116.617 33.6744c3.301 0 5.497-7.907 5.497-16.8372v-.093c0-8.88374-2.165-16.7442-5.466-16.7442-3.302 0-5.497 7.90697-5.497 16.8372v.093c0 8.8838 2.164 16.7442 5.466 16.7442zm.031-2.186c-2.694 0-4.656-6.6047-4.656-14.6512v-.093c0-8.04653 1.931-14.55815 4.625-14.55815s4.656 6.60465 4.656 14.65115v.093c0 8.0465-1.931 14.5582-4.625 14.5582z"/><path d="m127.032 33.1163h.81v-30.3256h3.8v-2.232562h-8.41v2.232562h3.8z"/><path d="m143.083 33.1163v-32.558162h-.763l-7.491 28.325562v-28.325562h-.809v32.558162h.607l7.646-28.93025v28.93025z"/><path d="m146.323 33.1163h4.734c2.352 0 3.909-3.4419 3.909-8.8837v-.0931c0-4.4651-1.152-6.7442-2.46-7.7674.887-1.1163 1.853-3.2558 1.853-7.72094v-.09302c0-2-.234-3.72093-.701-5.11628-.607-1.81395-1.588-2.883722-2.834-2.883722h-4.501zm7.21-24.23258c0 4.32558-1.183 6.69768-2.803 6.69768h-3.597v-12.7907h3.675c1.76 0 2.725 2.4186 2.725 6zm.608 15.34888c0 4.093-1.184 6.6511-3.053 6.6511h-3.955v-13.0697h3.691c2.164 0 3.317 2.279 3.317 6.3255z"/><path d="m162.469 33.6744c3.302 0 5.497-7.907 5.497-16.8372v-.093c0-8.88374-2.164-16.7442-5.466-16.7442-3.301 0-5.497 7.90697-5.497 16.8372v.093c0 8.8838 2.165 16.7442 5.466 16.7442zm.031-2.186c-2.694 0-4.656-6.6047-4.656-14.6512v-.093c0-8.04653 1.931-14.55815 4.625-14.55815s4.657 6.60465 4.657 14.65115v.093c0 8.0465-1.932 14.5582-4.626 14.5582z"/><path d="m170.717 33.1163h.81v-30.3256h6.976v30.3256h.81v-32.558162h-8.596z"/><path d="m187.532 33.6744c3.302 0 5.497-7.907 5.497-16.8372v-.093c0-8.88374-2.164-16.7442-5.466-16.7442-3.301 0-5.497 7.90697-5.497 16.8372v.093c0 8.8838 2.165 16.7442 5.466 16.7442zm.031-2.186c-2.694 0-4.656-6.6047-4.656-14.6512v-.093c0-8.04653 1.931-14.55815 4.625-14.55815s4.657 6.60465 4.657 14.65115v.093c0 8.0465-1.932 14.5582-4.626 14.5582z"/><path d="m195.78 33.1163h.81v-15.6279h2.18l4.983 15.6279h1.121l-5.419-16.8837 5.201-15.674462h-1.09l-4.827 14.697662h-2.149v-14.697662h-.81z"/><path d="m205.674 33.1163h.841l1.386-9.1163h6.431l1.386 9.1163h.888l-5.077-32.79072h-.779zm2.569-11.3023 2.881-18.83726 2.866 18.83726z"/><path d="m218.615 6.46512c.919-2.3721 2.087-4.32559 3.722-4.32559 1.822 0 2.99 2.74419 2.99 6.55814v.09303c0 4.6046-1.432 6.8372-3.254 6.8372h-1.822v2.1861h1.822c2.164 0 3.488 2.279 3.488 6.6046v.093c0 3.9535-1.355 7.0233-3.364 7.0233-1.635 0-2.787-1.6744-3.737-4.0465l-.483 1.7674c1.012 2.5582 2.352 4.4186 4.22 4.4186 2.554 0 4.205-4 4.205-9.2093v-.093c0-3.907-1.012-6.8372-2.554-7.7674 1.557-1.1628 2.32-4.3256 2.32-7.90703v-.09302c0-5.06977-1.619-8.60465-3.815-8.60465-1.993 0-3.317 2.46511-4.236 4.83721z"/><path d="m227.953 33.1163h.841l1.386-9.1163h6.432l1.386 9.1163h.888l-5.077-32.79072h-.779zm2.57-11.3023 2.881-18.83726 2.866 18.83726z"/><path d="m241.191 33.1163h.81v-15.2558h6.977v15.2558h.81v-32.558162h-.81v15.069762h-6.977v-15.069762h-.81z"/><path d="m262.087 33.1163v-32.558162h-.763l-7.491 28.325562v-28.325562h-.81v32.558162h.607l7.647-28.93025v28.93025z"/><path d="m273.347.558138h-4.517c-2.445 0-3.955 3.860462-3.955 9.255812v.09303c0 5.53492 1.401 8.93022 3.286 9.53492l-3.691 13.6744h1.028l3.597-13.4884h3.442v13.4884h.81zm-.81 2.232562v14.6512h-3.489c-1.915 0-3.363-2.4186-3.363-7.4419v-.09302c0-4.27907 1.137-7.11628 3.114-7.11628z"/><path d="m275.973 38.093c.935-1.0697 1.293-2.5581 1.293-5.4883v-3.4419h-1.028v3.9535h.42c.047 1.8139-.202 2.7442-.872 3.8139z"/></g><g opacity=".4"><path d="m.148438 66.6251h.639846v-11.8048h5.512496v11.8048h.63985v-25.1932h-.63985v11.6608h-5.512496v-11.6608h-.639846z"/><path d="m9.49712 66.6251h6.18928v-1.7276h-5.5494v-10.1132h4.9341v-1.7276h-4.9341v-9.8973h5.4878v-1.7275h-6.12768z"/><path d="m21.6778 67.057c2.6086 0 4.3435-6.1184 4.3435-13.0285v-.072c0-6.8741-1.7103-12.9565-4.3189-12.9565s-4.3436 6.1183-4.3436 13.0285v.072c0 6.8741 1.7104 12.9565 4.319 12.9565zm.0246-1.6916c-2.1287 0-3.6791-5.1106-3.6791-11.3369v-.072c0-6.2263 1.5258-11.265 3.6545-11.265s3.6791 5.1107 3.6791 11.337v.072c0 6.2263-1.5258 11.2649-3.6545 11.2649z"/><path d="m28.1944 66.6251h3.3838c1.7227 0 3.31-2.1594 3.31-7.2341v-.072c0-4.6427-1.3289-6.8381-3.15-6.8381h-2.9039v-9.3215h5.3402v-1.7275h-5.9801zm.6399-1.7276v-10.6891h2.8547c1.4765 0 2.5593 1.4396 2.5593 5.2186v.072c0 3.563-1.1074 5.3985-2.6331 5.3985z"/><path d="m42.6008 41.4319-2.9285 11.121-2.9408-11.121h-.7629l3.2977 12.3446-3.4207 12.8486h.7505l3.0516-11.6249 3.0639 11.6249h.7628l-3.4329-12.8486 3.3099-12.3446z"/><path d="m48.7024 67.057c2.6086 0 4.3435-6.1184 4.3435-13.0285v-.072c0-6.8741-1.7103-12.9565-4.3189-12.9565s-4.3435 6.1183-4.3435 13.0285v.072c0 6.8741 1.7103 12.9565 4.3189 12.9565zm.0246-1.6916c-2.1287 0-3.6791-5.1106-3.6791-11.3369v-.072c0-6.2263 1.5258-11.265 3.6545-11.265s3.6791 5.1107 3.6791 11.337v.072c0 6.2263-1.5258 11.2649-3.6545 11.2649z"/><path d="m53.8187 64.8975v7.0541h.6276v-5.3265h8.2072v5.3265h.6276v-7.0541h-.7999l-3.6052-23.6456h-.6522l-3.6176 23.6456zm4.725-21.4502 3.2362 21.4502h-6.4969z"/><path d="m72.2097 66.6251v-25.1932h-.6029l-5.9186 21.9181v-21.9181h-.6398v25.1932h.4799l6.0416-22.386v22.386z"/><path d="m74.7696 66.6251h.6152v-21.8821l3.4084 14.5041h.0492l3.4084-14.5041v21.8821h.6399v-25.1932h-.603l-3.4576 14.9-3.4576-14.9h-.6029z"/><path d="m89.3895 67.057c2.6086 0 4.3436-6.1184 4.3436-13.0285v-.072c0-6.8741-1.7104-12.9565-4.319-12.9565s-4.3435 6.1183-4.3435 13.0285v.072c0 6.8741 1.7104 12.9565 4.3189 12.9565zm.0246-1.6916c-2.1287 0-3.679-5.1106-3.679-11.3369v-.072c0-6.2263 1.5257-11.265 3.6544-11.265 2.1288 0 3.6791 5.1107 3.6791 11.337v.072c0 6.2263-1.5258 11.2649-3.6545 11.2649z"/><path d="m99.5952 66.6251h.6398v-23.4657h5.513v23.4657h.639v-25.1932h-6.7918z"/><path d="m108.944 66.6251h.64v-9.3935h2.325c1.809 0 3.36-2.6993 3.36-8.0258v-.072c0-4.8587-1.305-7.7019-3.2-7.7019h-3.125zm.64-11.121v-12.3447h2.436c1.538 0 2.609 2.0875 2.609 6.0824v.072c0 3.7789-1.083 6.1903-2.683 6.1903z"/><path d="m121.101 67.057c2.608 0 4.343-6.1184 4.343-13.0285v-.072c0-6.8741-1.71-12.9565-4.319-12.9565-2.608 0-4.343 6.1183-4.343 13.0285v.072c0 6.8741 1.71 12.9565 4.319 12.9565zm.024-1.6916c-2.129 0-3.679-5.1106-3.679-11.3369v-.072c0-6.2263 1.526-11.265 3.655-11.265 2.128 0 3.679 5.1107 3.679 11.337v.072c0 6.2263-1.526 11.2649-3.655 11.2649z"/><path d="m127.617 66.6251h.64v-12.0928h1.723l3.937 12.0928h.886l-4.282-13.0645 4.11-12.1287h-.861l-3.815 11.3729h-1.698v-11.3729h-.64z"/><path d="m139.798 67.057c2.608 0 4.343-6.1184 4.343-13.0285v-.072c0-6.8741-1.71-12.9565-4.319-12.9565-2.608 0-4.343 6.1183-4.343 13.0285v.072c0 6.8741 1.71 12.9565 4.319 12.9565zm.024-1.6916c-2.128 0-3.679-5.1106-3.679-11.3369v-.072c0-6.2263 1.526-11.265 3.655-11.265s3.679 5.1107 3.679 11.337v.072c0 6.2263-1.526 11.2649-3.655 11.2649z"/><path d="m146.315 66.6251h.639v-11.8048h5.513v11.8048h.64v-25.1932h-.64v11.6608h-5.513v-11.6608h-.639z"/><path d="m159.564 67.057c1.526 0 2.498-1.7996 3.42-4.3909l-.43-1.2236c-.874 2.5553-1.723 3.9229-2.966 3.9229-2.054 0-3.642-5.0026-3.642-11.3369v-.072c0-6.3343 1.563-11.265 3.63-11.265 1.292 0 2.153 1.5836 2.904 3.707l.455-1.3676c-.886-2.4113-1.821-4.0309-3.347-4.0309-2.485 0-4.306 5.9024-4.306 13.0285v.072c0 7.234 1.809 12.9565 4.282 12.9565z"/><path d="m166.461 66.6251 5.18-25.1932h-.726l-2.99 14.864-3.371-14.864h-.751l3.777 16.4475-1.833 8.7457z"/><path d="m175.386 41.2519h-.579l-3.912 25.3732h.676l3.519-23.0698 3.507 23.0698h.714z"/><path d="m181.138 66.6251h2.965c1.772 0 3.359-2.6633 3.359-7.9539v-.072c0-4.7867-1.316-7.6299-3.199-7.6299h-2.485v-9.5374h-.64zm.64-1.7276v-12.2007h2.436c1.538 0 2.608 2.0515 2.608 6.0104v.072c0 3.707-1.095 6.1183-2.682 6.1183z"/><path d="m190.637 66.6251h.64v-23.4657h3.002v-1.7275h-6.644v1.7275h3.002z"/><path d="m203.319 66.6251v-25.1932h-.603l-5.918 21.9181v-21.9181h-.64v25.1932h.48l6.042-22.386v22.386z"/><path d="m205.879 66.6251h.64v-9.3935h2.326c1.808 0 3.359-2.6993 3.359-8.0258v-.072c0-4.8587-1.304-7.7019-3.199-7.7019h-3.126zm.64-11.121v-12.3447h2.436c1.539 0 2.609 2.0875 2.609 6.0824v.072c0 3.7789-1.083 6.1903-2.682 6.1903z"/><path d="m218.036 67.057c2.608 0 4.343-6.1184 4.343-13.0285v-.072c0-6.8741-1.71-12.9565-4.318-12.9565-2.609 0-4.344 6.1183-4.344 13.0285v.072c0 6.8741 1.71 12.9565 4.319 12.9565zm.025-1.6916c-2.129 0-3.68-5.1106-3.68-11.3369v-.072c0-6.2263 1.526-11.265 3.655-11.265s3.679 5.1107 3.679 11.337v.072c0 6.2263-1.526 11.2649-3.654 11.2649z"/><path d="m224.553 66.6251h3.74c1.858 0 3.089-2.6633 3.089-6.8742v-.0719c0-3.4551-.911-5.2186-1.944-6.0104.701-.8638 1.464-2.5193 1.464-5.9744v-.072c0-1.5476-.185-2.8792-.554-3.9589-.48-1.4036-1.255-2.2314-2.239-2.2314h-3.556zm5.697-18.751c0 3.3471-.936 5.1826-2.215 5.1826h-2.843v-9.8973h2.904c1.391 0 2.154 1.8715 2.154 4.6428zm.48 11.8768c0 3.1672-.936 5.1466-2.412 5.1466h-3.126v-10.1132h2.917c1.71 0 2.621 1.7635 2.621 4.8947z"/><path d="m232.514 66.6251h.665l1.095-7.0541h5.081l1.096 7.0541h.701l-4.011-25.3732h-.616zm2.03-8.7457 2.277-14.576 2.264 14.576z"/><path d="m244.254 66.6251h.64v-23.4657h3.002v-1.7275h-6.645v1.7275h3.003z"/><path d="m249.775 66.6251h2.965c1.772 0 3.359-2.6633 3.359-7.9539v-.072c0-4.7867-1.316-7.6299-3.199-7.6299h-2.485v-9.5374h-.64zm.64-1.7276v-12.2007h2.436c1.538 0 2.608 2.0515 2.608 6.0104v.072c0 3.707-1.095 6.1183-2.682 6.1183z"/><path d="m261.894 67.057c1.526 0 2.498-1.7996 3.421-4.3909l-.43-1.2236c-.874 2.5553-1.723 3.9229-2.966 3.9229-2.055 0-3.642-5.0026-3.642-11.3369v-.072c0-6.3343 1.563-11.265 3.63-11.265 1.292 0 2.153 1.5836 2.904 3.707l.455-1.3676c-.886-2.4113-1.821-4.0309-3.347-4.0309-2.485 0-4.307 5.9024-4.307 13.0285v.072c0 7.234 1.809 12.9565 4.282 12.9565z"/><path d="m273.475 41.4319h-3.568c-1.932 0-3.126 2.9872-3.126 7.162v.072c0 4.2829 1.108 6.9102 2.597 7.378l-2.916 10.5812h.812l2.842-10.4372h2.719v10.4372h.64zm-.64 1.7275v11.337h-2.756c-1.513 0-2.658-1.8715-2.658-5.7585v-.072c0-3.3111.899-5.5065 2.461-5.5065z"/></g><g opacity=".4"><path d="m9.02128 111.567c3.06062 0 5.01062-2.732 6.86182-6.667l-.8639-1.858c-1.7525 3.88-3.4556 5.957-5.94858 5.957-4.12203 0-7.3061-7.597-7.3061-17.2153v-.1093c0-9.6186 3.13466-17.1058 7.28136-17.1058 2.59172 0 4.31952 2.4047 5.82522 5.6291l.9132-2.0768c-1.7771-3.6616-3.653-6.1209-6.71368-6.1209-4.98592 0-8.638979 8.9628-8.638979 19.7837v.1093c0 10.985 3.628399 19.674 8.589639 19.674z"/><path d="m26.9566 111.567c5.2328 0 8.713-9.29 8.713-19.7833v-.1093c0-10.4384-3.4309-19.6744-8.6636-19.6744-5.2328 0-8.7131 9.2907-8.7131 19.7837v.1093c0 10.438 3.431 19.674 8.6637 19.674zm.0494-2.568c-4.2701 0-7.3802-7.761-7.3802-17.2153v-.1093c0-9.4546 3.0607-17.1058 7.3308-17.1058 4.2702 0 7.3801 7.7605 7.3801 17.2151v.1093c0 9.455-3.0606 17.106-7.3307 17.106z"/><path d="m55.2532 111.567c3.0607 0 5.0106-2.732 6.8618-6.667l-.8639-1.858c-1.7524 3.88-3.4556 5.957-5.9486 5.957-4.122 0-7.306-7.597-7.306-17.2153v-.1093c0-9.6186 3.1347-17.1058 7.2814-17.1058 2.5917 0 4.3194 2.4047 5.8251 5.6291l.9134-2.0768c-1.7772-3.6616-3.6532-6.1209-6.7139-6.1209-4.9859 0-8.6389 8.9628-8.6389 19.7837v.1093c0 10.985 3.6284 19.674 8.5896 19.674z"/><path d="m65.7722 110.912h1.2834v-35.6329h11.058v35.6329h1.2834v-38.2562h-13.6248z"/><path d="m84.5252 110.912h12.4155v-2.624h-11.132v-15.3566h9.8978v-2.6233h-9.8978v-15.029h11.0086v-2.6233h-12.2921z"/><path d="m115.031 119h1.259v-10.712h-1.604v-35.6322h-1.284v35.6322h-11.058v-35.6322h-1.283v38.2562h13.97z"/><path d="m134.372 110.912v-38.2562h-1.209l-11.873 33.2822v-33.2822h-1.283v38.2562h.962l12.12-33.9934v33.9934z"/><path d="m138.026 110.912h1.333l2.197-10.712h10.194l2.197 10.712h1.406l-8.046-38.5294h-1.234zm4.073-13.2806 4.566-22.1337 4.542 22.1337z"/><path d="m166.054 72.3826h-1.161l-7.849 38.5294h1.358l7.059-35.0318 7.035 35.0318h1.431z"/><path d="m191.957 110.912v-38.2562h-1.209l-11.873 33.2822v-33.2822h-1.283v38.2562h.962l12.12-33.9934v33.9934z"/><path d="m204.917 111.567c3.06 0 5.01-2.732 6.861-6.667l-.863-1.858c-1.753 3.88-3.456 5.957-5.949 5.957-4.122 0-7.306-7.597-7.306-17.2153v-.1093c0-9.6186 3.134-17.1058 7.281-17.1058 2.592 0 4.32 2.4047 5.825 5.6291l.914-2.0768c-1.778-3.6616-3.653-6.1209-6.714-6.1209-4.986 0-8.639 8.9628-8.639 19.7837v.1093c0 10.985 3.628 19.674 8.59 19.674z"/><path d="m220.101 110.912h1.283v-35.6329h6.023v-2.6233h-13.329v2.6233h6.023z"/><path d="m237.845 111.567c5.232 0 8.713-9.29 8.713-19.7833v-.1093c0-10.4384-3.431-19.6744-8.664-19.6744s-8.713 9.2907-8.713 19.7837v.1093c0 10.438 3.431 19.674 8.664 19.674zm.049-2.568c-4.27 0-7.38-7.761-7.38-17.2153v-.1093c0-9.4546 3.061-17.1058 7.331-17.1058s7.38 7.7605 7.38 17.2151v.1093c0 9.455-3.061 17.106-7.331 17.106z"/><path d="m250.917 110.912h1.234v-33.2283l6.837 22.0244h.099l6.837-22.0244v33.2283h1.284v-38.2562h-1.21l-6.936 22.6256-6.936-22.6256h-1.209z"/><path d="m271.803 110.912h1.629v-4.646h-1.629z"/></g></g></svg>